<?xml version="1.0" encoding="utf-8"?>
<!-- Generator: Adobe Illustrator 16.0.0, SVG Export Plug-In . SVG Version: 6.00 Build 0)  -->
<!DOCTYPE svg PUBLIC "-//W3C//DTD SVG 1.1//EN" "http://www.w3.org/Graphics/SVG/1.1/DTD/svg11.dtd">
<svg version="1.1" id="Layer_1" xmlns="http://www.w3.org/2000/svg" xmlns:xlink="http://www.w3.org/1999/xlink" x="0px" y="0px"
	 width="157px" height="44px" viewBox="0 0 157 44" enable-background="new 0 0 157 44" xml:space="preserve">
<g>
	<path fill-rule="evenodd" clip-rule="evenodd" fill="#FFFFFF" d="M39.226,3.169c5.036,1.17,9.657,3.128,13.661,6.495
		c7.289,6.129,6.62,16.086,1.552,21.923c-3.888,4.481-8.961,6.853-14.637,8.013c-8.71,1.78-17.303,1.464-25.496-2.292
		c-5.959-2.731-10.317-6.96-11.493-13.768c-0.021-0.116-1.903-7.174,4.333-12.96c4.194-3.891,9.099-6.065,14.539-7.399
		C29.048,1.377,37.743,2.825,39.226,3.169z M29.215,37.354c7.477-0.008,13.352-1.176,18.753-4.162
		c4.834-2.675,8.558-6.264,9.206-12.165c0.105-0.947-0.011-1.465-1.087-1.2c-3.032,0.746-6.005,1.685-8.924,2.794
		c-0.605,0.23-0.873,0.52-0.711,1.282c0.309,1.464-0.496,2.42-1.836,2.818c-0.927,0.273-1.692,0.507-2.019,1.586
		c-0.193,0.637-5.21,3.364-5.932,3.408c-0.414,0.023-0.809-0.004-1.166,0.313c-1.101,0.978-2.393,0.925-3.657,0.47
		c-0.752-0.273-1.365-0.235-2.078,0.107c-1.445,0.688-2.741,0.359-3.806-0.822c-0.309-0.345-0.515-0.711-1.097-0.729
		c-2.158-0.063-2.835-1.162-2.835-1.578c0-0.179-2.26,0.416-3.126-1.301c-0.393-0.781-0.99-1.172-1.878-1.396
		c-1.208-0.306-2.01-1.243-1.917-2.528c0.085-1.152-0.544-1.559-1.385-1.943c-2.567-1.172-5.255-1.961-8.01-2.533
		c-1.977-0.411-2.179-0.195-1.875,1.872c0.582,3.94,2.721,6.952,5.78,9.313C15.777,35.714,22.946,37.273,29.215,37.354z
		 M35.19,25.462c0.804-0.313,1.128,0.298,1.523,0.638c0.749,0.644,1.409,1.392,2.158,2.035c0.941,0.809,1.857,0.508,2.634-0.267
		c0.808-0.804,0.353-1.494-0.304-2.139c-0.97-0.945-1.93-1.901-2.878-2.869c-0.276-0.28-0.773-0.629-0.406-1.024
		c0.405-0.438,0.727,0.131,1.006,0.37c1.224,1.051,2.389,2.172,3.644,3.188c0.867,0.701,1.777,0.509,2.48-0.315
		c0.675-0.791,0.24-1.495-0.39-2.031c-3.526-3.006-7.069-5.992-10.624-8.965c-1.483-1.242-3.043-1.182-4.59-0.102
		c-1.109,0.774-2.176,1.61-3.3,2.362c-1.475,0.985-3.067,0.925-4.621,0.254c-1.179-0.512-1.31-1.368-0.481-2.374
		c0.61-0.739,1.451-1.298,2.036-2.615c-2.503,0.939-4.746,0.871-6.959,0.242c-1.898-0.541-3.781-1.139-5.645-1.79
		c-0.6-0.209-1.014-0.255-1.525,0.201c-1.891,1.688-3.452,3.606-4.391,5.979c-0.708,1.788-0.697,1.82,1.12,2.259
		c2.983,0.722,5.969,1.447,8.722,2.853c0.891,0.454,1.648,0.867,2.694,0.278c0.684-0.387,1.525-0.162,2.228,0.284
		c0.341,0.218,0.618,0.438,1.125,0.281c1.346-0.416,3.126,0.506,3.721,1.279c0,0,2.377-0.477,3.282,0.573
		c0.39,0.451,0.773,0.934,0.841,1.576c0.052,0.507,0.235,0.796,0.783,0.996c2.111,0.769,2.629,1.51,2.508,3.7
		c-0.038,0.67,0.12,0.911,0.724,1.102c0.838,0.266,1.611,0.335,2.504-0.315c-0.677-0.739-1.337-1.452-1.987-2.175
		c-0.235-0.262-0.602-0.573-0.224-0.913c0.286-0.257,0.569,0.066,0.794,0.272c0.688,0.637,1.374,1.276,2.051,1.925
		c0.807,0.774,1.622,0.615,2.364-0.042c0.845-0.747,0.09-1.286-0.34-1.834C36.724,27.387,35.67,26.671,35.19,25.462z M31.673,9.104
		c-2.702-0.003-4.322,0.598-6.371,2.447c-0.811,0.73-1.593,1.503-2.309,2.326c-0.414,0.477-1.399,0.907-1.037,1.533
		c0.424,0.732,1.446,0.643,2.287,0.486c0.906-0.167,1.6-0.734,2.302-1.27c0.995-0.755,1.942-1.573,3.059-2.16
		c1.457-0.763,2.901-0.791,4.296,0.105c0.786,0.505,1.546,1.062,2.261,1.665c2.788,2.351,5.561,4.72,8.323,7.103
		c0.545,0.471,0.978,0.72,1.771,0.376c3.153-1.366,6.428-2.4,9.781-3.155c0.812-0.184,0.992-0.419,0.74-1.251
		c-0.767-2.517-2.215-4.556-4.056-6.385c-0.644-0.639-1.156-0.718-2.006-0.364c-4.606,1.911-9.207,1.91-13.765-0.239
		C35.286,9.536,33.538,9.047,31.673,9.104z M10.908,8.922c2.042,0.982,4.071,1.388,6.072,1.875c3.194,0.776,6.204,0,9.024-1.377
		c2.521-1.233,5.02-1.808,7.821-1.321c2.141,0.373,4.026,1.38,6.028,2.082c2.858,1,8.507,0.627,10.611-0.983
		C41.247,1.705,20.296,1.475,10.908,8.922z M26.142,29.423c0.075,0.228,0.124,0.369,0.17,0.513c0.465,1.466,1.389,2.129,2.601,1.798
		c1.173-0.319,1.706-1.145,1.56-2.339c-0.151-1.222-1.157-1.905-2.657-1.657c-0.973,0.16-0.718-0.215-0.631-0.814
		c0.281-1.977-0.8-2.93-2.602-2.355c-0.308,0.098-0.517,0.479-0.912,0.026c-1.784-2.047-2.207-2.061-4.123-0.283
		c-0.275-1.145-0.855-1.986-2.165-1.645c-1.037,0.269-1.403,1.145-1.037,2.088c0.573,1.478,1.768,1.046,2.86,0.633
		c0.329,2.525,0.479,2.654,3.102,2.573c0.324-0.011,0.398,0.108,0.526,0.38C23.729,30.227,24.191,30.383,26.142,29.423z"/>
	<path fill-rule="evenodd" clip-rule="evenodd" fill="#FFFFFF" d="M121.415,37.746c-0.576,2.125-2.184,3.724-4.185,3.903
		c-2.37,0.215-4.605-0.086-5.994-2.398c-0.759-1.265-0.647-1.464,0.779-1.497c0.985-0.022,1.855,0.04,2.739,0.741
		c1.332,1.057,3.374,0.067,3.542-1.589c0.042-0.406,0.216-1.011-0.675-0.708c-4.406,1.509-7.637-1.117-7.297-5.898
		c0.231-3.256,1.312-5.1,3.517-5.656c3.609-0.913,7.863,0.137,7.844,5.634C121.683,31.161,121.845,36.157,121.415,37.746z
		 M113.477,30.88c0.027,2.305,0.869,3.378,2.586,3.297c1.405-0.065,2.072-0.843,2.371-2.76c0.353-2.258-0.655-4.151-2.279-4.287
		C114.431,26.988,113.447,28.365,113.477,30.88z"/>
	<path fill-rule="evenodd" clip-rule="evenodd" fill="#FFFFFF" d="M66.818,14.972c0-1.093-0.075-2.193,0.017-3.278
		c0.159-1.875,0.95-3.394,2.766-4.199c1.811-0.802,3.566-0.719,5.126,0.547c0.512,0.415,0.762,0.444,1.269,0.034
		c1.676-1.354,3.544-1.431,5.404-0.471c1.806,0.932,2.464,2.591,2.481,4.541c0.017,1.979-0.085,3.963,0.034,5.934
		c0.077,1.28-0.562,1.28-1.491,1.271c-0.873-0.011-1.468-0.017-1.395-1.209c0.111-1.815,0.051-3.644,0.023-5.465
		c-0.03-1.861-0.699-2.712-2.074-2.726c-1.46-0.017-2.22,0.906-2.234,2.753c-0.014,1.718-0.072,3.439,0.021,5.153
		c0.062,1.128-0.209,1.553-1.435,1.516c-1.093-0.033-1.578-0.19-1.5-1.442c0.121-1.919,0.026-3.85,0.034-5.776
		c0.005-1.286-0.551-2.096-1.891-2.197c-1.258-0.097-2.198,0.679-2.26,2.028c-0.093,2.026-0.124,4.062-0.025,6.087
		c0.062,1.279-0.596,1.265-1.522,1.278c-0.935,0.014-1.479-0.131-1.374-1.26c0.094-1.032,0.019-2.081,0.019-3.122
		C66.813,14.972,66.816,14.972,66.818,14.972z"/>
	<path fill-rule="evenodd" clip-rule="evenodd" fill="#FFFFFF" d="M138.152,8.459c0-1.327-0.013-2.21,0.005-3.093
		c0.012-0.648,0.173-1.247,0.793-1.597c0.646-0.366,1.39-0.711,2.075-0.449c0.734,0.279,0.38,7.394,0.379,10.26
		c-0.001,4.145-1.987,6.021-6.238,5.897c-3.605-0.105-5.647-2.515-5.418-6.347c0.145-2.399,0.711-4.584,3.116-5.693
		C134.661,6.609,136.403,6.854,138.152,8.459z M133.029,13.603c-0.014,0.554,0.148,1.259,0.448,1.929
		c0.374,0.83,1.053,1.299,1.94,1.36c0.94,0.064,1.765-0.286,2.229-1.14c0.854-1.569,0.855-3.187,0.007-4.756
		c-0.458-0.846-1.261-1.23-2.213-1.185c-0.976,0.046-1.65,0.595-2.006,1.486C133.166,11.971,132.988,12.679,133.029,13.603z"/>
	<path fill-rule="evenodd" clip-rule="evenodd" fill="#FFFFFF" d="M89.508,35.505c0,1.253,0.027,2.287-0.005,3.319
		c-0.046,1.501-1.309,2.328-2.712,1.862c-0.589-0.195-0.448-0.633-0.448-1.011c-0.002-3.382-0.077-6.765,0-10.146
		c0.065-2.858,1.841-4.715,4.567-5.04c3.457-0.411,5.859,0.908,6.662,3.752c0.551,1.958,0.475,3.923-0.375,5.796
		C95.772,37.174,92.497,37.885,89.508,35.505z M94.631,30.683c-0.048-0.464-0.04-0.941-0.152-1.389
		c-0.301-1.211-0.975-2.072-2.333-2.122c-1.354-0.049-2.098,0.703-2.437,1.951c-0.322,1.188-0.322,2.38,0.153,3.511
		c0.408,0.971,1.135,1.578,2.283,1.552c1.078-0.025,1.695-0.616,2.142-1.521C94.602,32.025,94.518,31.345,94.631,30.683z"/>
	<path fill-rule="evenodd" clip-rule="evenodd" fill="#FFFFFF" d="M96.684,16.023c-0.993,2.608-3.093,3.825-6.019,3.614
		c-2.849-0.204-4.801-1.777-5.398-4.351c-1.261-5.432,2.544-9.398,7.706-8.031c2.589,0.686,4.436,3.646,4.022,6.298
		c-0.132,0.844-0.669,0.646-1.139,0.651c-2.136,0.018-4.274,0.066-6.41,0c-1.172-0.038-1.204,0.448-0.817,1.291
		c0.595,1.294,2.484,2.085,3.737,1.229C93.745,15.783,95.134,16.133,96.684,16.023z M91.014,12.008c0.311,0,2.488,0.112,2.487-0.408
		c0.125-0.732-0.524-1.322-1.221-1.631c-0.888-0.393-1.812-0.441-2.67,0.081c-0.59,0.359-1.163,0.939-1,1.614
		C88.732,12.165,90.704,12.008,91.014,12.008z"/>
	<path fill-rule="evenodd" clip-rule="evenodd" fill="#FFFFFF" d="M128.878,13.014c0.001,5.296-1.488,6.733-6.801,6.517
		c-2.37-0.096-3.626-1.104-3.796-3.053c-0.205-2.318,0.832-3.7,3.205-4.209c1.064-0.227,2.146-0.375,3.218-0.573
		c0.587-0.106,0.948-0.451,0.902-1.071c-0.037-0.532-0.384-0.811-0.898-0.932c-1.133-0.265-2.163-0.307-2.834,0.908
		c-0.284,0.513-2.736,0.894-3.076,0.489c-0.133-0.16-0.138-0.493-0.091-0.725c0.258-1.228,0.837-2.269,2.032-2.784
		c2.29-0.989,4.57-0.839,6.765,0.293c1.031,0.533,1.319,1.564,1.374,2.641C128.922,11.346,128.878,12.182,128.878,13.014z
		 M123.097,17.234c0.609-0.041,1.188-0.238,1.69-0.62c0.905-0.688,0.907-1.647,0.782-2.906c0,0-2.764,0.555-3.225,0.761
		c-0.751,0.334-1.066,0.971-0.836,1.775C121.728,17.006,122.347,17.226,123.097,17.234z"/>
	<path fill-rule="evenodd" clip-rule="evenodd" fill="#FFFFFF" d="M148.421,6.945c3.767,0.008,6.057,2.428,6.051,6.396
		c-0.007,3.873-2.416,6.331-6.177,6.302c-3.706-0.03-6.115-2.578-6.075-6.431C142.26,9.314,144.611,6.938,148.421,6.945z
		 M145.578,12.813c-0.02,2.4,0.675,3.665,2.053,4.021c1.169,0.302,2.172-0.009,2.871-1.033c0.944-1.376,0.839-4.141-0.194-5.313
		c-0.831-0.943-1.925-1.091-2.994-0.653C145.843,10.436,145.637,11.817,145.578,12.813z"/>
	<path fill-rule="evenodd" clip-rule="evenodd" fill="#FFFFFF" d="M128.84,36.989c-3.753,0.014-6.129-2.465-6.113-6.376
		c0.016-3.814,2.396-6.302,6.039-6.311c3.723-0.008,6.126,2.507,6.11,6.396C134.861,34.536,132.52,36.976,128.84,36.989z
		 M131.504,30.666c0.011-2.712-1.587-4.262-3.611-3.489c-1.366,0.521-1.78,1.652-1.821,2.99c-0.046,1.489-0.015,2.987,1.493,3.842
		c1.218,0.688,2.814,0.15,3.505-1.069C131.472,32.229,131.495,31.45,131.504,30.666z"/>
	<path fill-rule="evenodd" clip-rule="evenodd" fill="#FFFFFF" d="M111.496,19.529c-3.93-0.017-5.998-2.5-5.708-6.856
		c0.247-3.721,3.004-6.061,6.617-5.617c2.87,0.353,4.374,1.533,4.799,3.684c0.117,0.592,0.085,0.913-0.607,0.863
		c-1.196-0.084-2.432,0.399-3.262-1.223c-0.673-1.316-3.107-0.81-3.715,0.674c-0.589,1.439-0.594,2.949-0.077,4.43
		c0.351,1.006,1.105,1.453,2.153,1.483c0.999,0.029,1.681-0.372,2.071-1.318c0.279-0.679,2.837-1.217,3.351-0.728
		c0.348,0.332,0.039,0.69-0.055,1.005C116.364,18.277,114.391,19.542,111.496,19.529z"/>
	<path fill-rule="evenodd" clip-rule="evenodd" fill="#FFFFFF" d="M98.299,11.993c0.472-3.09,3.104-5.074,6.198-4.987
		c0.38,0.009,0.772-0.008,0.797,0.501c0.034,0.674,0.049,1.354,0.022,2.028c-0.047,1.208-1.045,0.563-1.56,0.681
		c-1.298,0.294-2.21,0.966-2.274,2.293c-0.092,1.92-0.054,3.848,0,5.768c0.042,1.498-0.982,0.989-1.696,1.042
		c-0.765,0.055-1.628,0.211-1.487-1.096C98.393,17.347,98.118,13.168,98.299,11.993z"/>
</g>
<path fill-rule="evenodd" clip-rule="evenodd" fill="#FFFFFF" d="M109.299,30.549c0,5.297-1.5,6.732-6.811,6.518
	c-2.372-0.097-3.626-1.106-3.798-3.055c-0.202-2.318,0.832-3.7,3.206-4.208c1.064-0.229,2.146-0.377,3.219-0.573
	c0.587-0.107,0.946-0.452,0.902-1.072c-0.037-0.531-0.385-0.811-0.899-0.932c-1.132-0.265-2.162-0.306-2.835,0.908
	c-0.282,0.513-2.735,0.896-3.075,0.488c-0.132-0.159-0.138-0.491-0.089-0.723c0.255-1.228,0.836-2.27,2.032-2.785
	c2.287-0.988,4.568-0.839,6.762,0.293c1.031,0.533,1.32,1.564,1.377,2.643C109.332,28.881,109.298,29.716,109.299,30.549z
	 M103.508,34.77c0.607-0.042,1.189-0.239,1.691-0.62c0.903-0.688,0.905-1.647,0.781-2.905c0,0-2.765,0.555-3.227,0.761
	c-0.75,0.334-1.065,0.971-0.834,1.775C102.138,34.541,102.758,34.76,103.508,34.77z"/>
</svg>
